<mxfile host="app.diagrams.net" modified="2020-03-17T20:04:21.078Z" agent="Mozilla/5.0 (Windows NT 10.0; Win64; x64) AppleWebKit/537.36 (KHTML, like Gecko) Chrome/80.0.3987.132 Safari/537.36" etag="qgGBRdb1736t0x6oT2ll" version="12.8.6" type="github">
  <diagram id="C5RBs43oDa-KdzZeNtuy" name="Page-1">
    <mxGraphModel dx="1038" dy="580" grid="1" gridSize="10" guides="1" tooltips="1" connect="1" arrows="1" fold="1" page="1" pageScale="1" pageWidth="827" pageHeight="1169" math="0" shadow="0">
      <root>
        <mxCell id="WIyWlLk6GJQsqaUBKTNV-0" />
        <mxCell id="WIyWlLk6GJQsqaUBKTNV-1" parent="WIyWlLk6GJQsqaUBKTNV-0" />
        <mxCell id="Z_TS1K_1lkuzl-0jUQaW-18" style="edgeStyle=orthogonalEdgeStyle;rounded=0;orthogonalLoop=1;jettySize=auto;html=1;exitX=0;exitY=0.5;exitDx=0;exitDy=0;entryX=0;entryY=0.5;entryDx=0;entryDy=0;" parent="WIyWlLk6GJQsqaUBKTNV-1" source="lje-nCFNsl1qw1t_iuet-0" target="Z_TS1K_1lkuzl-0jUQaW-12" edge="1">
          <mxGeometry relative="1" as="geometry">
            <Array as="points">
              <mxPoint x="240" y="240" />
              <mxPoint x="240" y="190" />
            </Array>
          </mxGeometry>
        </mxCell>
        <mxCell id="Z_TS1K_1lkuzl-0jUQaW-25" style="edgeStyle=orthogonalEdgeStyle;rounded=0;orthogonalLoop=1;jettySize=auto;html=1;exitX=1;exitY=0.5;exitDx=0;exitDy=0;entryX=0.5;entryY=0;entryDx=0;entryDy=0;" parent="WIyWlLk6GJQsqaUBKTNV-1" source="lje-nCFNsl1qw1t_iuet-0" target="Z_TS1K_1lkuzl-0jUQaW-24" edge="1">
          <mxGeometry relative="1" as="geometry" />
        </mxCell>
        <mxCell id="lje-nCFNsl1qw1t_iuet-0" value="&lt;b&gt;Yedek Bilgisayar&lt;br&gt;&lt;/b&gt;STM32F103C8T6 Bluepill" style="whiteSpace=wrap;html=1;aspect=fixed;direction=south;fillColor=#cce5ff;strokeColor=#36393d;" parent="WIyWlLk6GJQsqaUBKTNV-1" vertex="1">
          <mxGeometry x="200" y="240" width="100" height="100" as="geometry" />
        </mxCell>
        <mxCell id="Z_TS1K_1lkuzl-0jUQaW-2" style="edgeStyle=orthogonalEdgeStyle;rounded=0;orthogonalLoop=1;jettySize=auto;html=1;exitX=0.5;exitY=1;exitDx=0;exitDy=0;entryX=0.5;entryY=0;entryDx=0;entryDy=0;" parent="WIyWlLk6GJQsqaUBKTNV-1" source="lje-nCFNsl1qw1t_iuet-1" target="lje-nCFNsl1qw1t_iuet-3" edge="1">
          <mxGeometry relative="1" as="geometry" />
        </mxCell>
        <mxCell id="Z_TS1K_1lkuzl-0jUQaW-17" style="edgeStyle=orthogonalEdgeStyle;rounded=0;orthogonalLoop=1;jettySize=auto;html=1;exitX=0.5;exitY=0;exitDx=0;exitDy=0;entryX=1;entryY=0.5;entryDx=0;entryDy=0;" parent="WIyWlLk6GJQsqaUBKTNV-1" source="lje-nCFNsl1qw1t_iuet-1" target="Z_TS1K_1lkuzl-0jUQaW-12" edge="1">
          <mxGeometry relative="1" as="geometry">
            <Array as="points">
              <mxPoint x="400" y="240" />
              <mxPoint x="400" y="190" />
            </Array>
          </mxGeometry>
        </mxCell>
        <mxCell id="lje-nCFNsl1qw1t_iuet-1" value="&lt;b&gt;Ana Bilgisayar&lt;/b&gt;&lt;br&gt;NUCLEO-G431KB" style="whiteSpace=wrap;html=1;aspect=fixed;fillColor=#cce5ff;strokeColor=#36393d;" parent="WIyWlLk6GJQsqaUBKTNV-1" vertex="1">
          <mxGeometry x="340" y="240" width="100" height="100" as="geometry" />
        </mxCell>
        <mxCell id="Z_TS1K_1lkuzl-0jUQaW-8" style="edgeStyle=orthogonalEdgeStyle;rounded=0;orthogonalLoop=1;jettySize=auto;html=1;exitX=0;exitY=0.5;exitDx=0;exitDy=0;entryX=1;entryY=0.25;entryDx=0;entryDy=0;" parent="WIyWlLk6GJQsqaUBKTNV-1" source="lje-nCFNsl1qw1t_iuet-2" target="lje-nCFNsl1qw1t_iuet-1" edge="1">
          <mxGeometry relative="1" as="geometry" />
        </mxCell>
        <mxCell id="lje-nCFNsl1qw1t_iuet-2" value="&lt;b&gt;GPS&lt;/b&gt;&lt;br&gt;Adafruit Ultimate" style="rounded=1;whiteSpace=wrap;html=1;fillColor=#ffff88;strokeColor=#36393d;" parent="WIyWlLk6GJQsqaUBKTNV-1" vertex="1">
          <mxGeometry x="480" y="190" width="120" height="60" as="geometry" />
        </mxCell>
        <mxCell id="lje-nCFNsl1qw1t_iuet-3" value="&lt;b&gt;Telemetri&lt;/b&gt;&lt;br&gt;E32-TTL-1W LoRa" style="rounded=1;whiteSpace=wrap;html=1;fillColor=#cdeb8b;strokeColor=#36393d;" parent="WIyWlLk6GJQsqaUBKTNV-1" vertex="1">
          <mxGeometry x="330" y="370" width="120" height="60" as="geometry" />
        </mxCell>
        <mxCell id="Z_TS1K_1lkuzl-0jUQaW-0" style="edgeStyle=orthogonalEdgeStyle;rounded=0;orthogonalLoop=1;jettySize=auto;html=1;exitX=0;exitY=0.5;exitDx=0;exitDy=0;entryX=1;entryY=0.5;entryDx=0;entryDy=0;" parent="WIyWlLk6GJQsqaUBKTNV-1" source="lje-nCFNsl1qw1t_iuet-4" target="lje-nCFNsl1qw1t_iuet-1" edge="1">
          <mxGeometry relative="1" as="geometry" />
        </mxCell>
        <mxCell id="lje-nCFNsl1qw1t_iuet-4" value="&lt;b&gt;10DOF IMU&lt;br&gt;&lt;/b&gt;BNO 055 + BMP 280" style="rounded=1;whiteSpace=wrap;html=1;fillColor=#fad9d5;strokeColor=#ae4132;" parent="WIyWlLk6GJQsqaUBKTNV-1" vertex="1">
          <mxGeometry x="480" y="260" width="120" height="60" as="geometry" />
        </mxCell>
        <mxCell id="Z_TS1K_1lkuzl-0jUQaW-26" style="edgeStyle=orthogonalEdgeStyle;rounded=0;orthogonalLoop=1;jettySize=auto;html=1;exitX=1;exitY=0.5;exitDx=0;exitDy=0;entryX=0.5;entryY=1;entryDx=0;entryDy=0;" parent="WIyWlLk6GJQsqaUBKTNV-1" source="lje-nCFNsl1qw1t_iuet-6" target="lje-nCFNsl1qw1t_iuet-0" edge="1">
          <mxGeometry relative="1" as="geometry" />
        </mxCell>
        <mxCell id="lje-nCFNsl1qw1t_iuet-6" value="&lt;b&gt;Barometre&lt;/b&gt;&lt;br&gt;BMP 388" style="rounded=1;whiteSpace=wrap;html=1;fillColor=#fff2cc;strokeColor=#d6b656;" parent="WIyWlLk6GJQsqaUBKTNV-1" vertex="1">
          <mxGeometry x="40" y="260" width="120" height="60" as="geometry" />
        </mxCell>
        <mxCell id="lje-nCFNsl1qw1t_iuet-17" style="edgeStyle=orthogonalEdgeStyle;rounded=0;orthogonalLoop=1;jettySize=auto;html=1;exitX=0;exitY=0.5;exitDx=0;exitDy=0;entryX=1;entryY=0.75;entryDx=0;entryDy=0;" parent="WIyWlLk6GJQsqaUBKTNV-1" source="lje-nCFNsl1qw1t_iuet-7" target="lje-nCFNsl1qw1t_iuet-1" edge="1">
          <mxGeometry relative="1" as="geometry" />
        </mxCell>
        <mxCell id="lje-nCFNsl1qw1t_iuet-7" value="&lt;b&gt;6DOF IMU&lt;br&gt;&lt;/b&gt;BMI 088" style="rounded=1;whiteSpace=wrap;html=1;" parent="WIyWlLk6GJQsqaUBKTNV-1" vertex="1">
          <mxGeometry x="480" y="330" width="120" height="60" as="geometry" />
        </mxCell>
        <mxCell id="Z_TS1K_1lkuzl-0jUQaW-12" value="&lt;b&gt;Ayırma Sistemi&lt;/b&gt;" style="ellipse;whiteSpace=wrap;html=1;gradientColor=#ffa500;fillColor=#ffcd28;strokeColor=#d79b00;" parent="WIyWlLk6GJQsqaUBKTNV-1" vertex="1">
          <mxGeometry x="260" y="160" width="120" height="60" as="geometry" />
        </mxCell>
        <mxCell id="Z_TS1K_1lkuzl-0jUQaW-34" style="edgeStyle=orthogonalEdgeStyle;rounded=0;orthogonalLoop=1;jettySize=auto;html=1;exitX=1;exitY=0.75;exitDx=0;exitDy=0;entryX=0.5;entryY=0;entryDx=0;entryDy=0;" parent="WIyWlLk6GJQsqaUBKTNV-1" source="Z_TS1K_1lkuzl-0jUQaW-19" target="Z_TS1K_1lkuzl-0jUQaW-21" edge="1">
          <mxGeometry relative="1" as="geometry" />
        </mxCell>
        <mxCell id="Z_TS1K_1lkuzl-0jUQaW-35" style="edgeStyle=orthogonalEdgeStyle;rounded=0;orthogonalLoop=1;jettySize=auto;html=1;exitX=1;exitY=0.25;exitDx=0;exitDy=0;entryX=0.5;entryY=0;entryDx=0;entryDy=0;" parent="WIyWlLk6GJQsqaUBKTNV-1" source="Z_TS1K_1lkuzl-0jUQaW-19" target="Z_TS1K_1lkuzl-0jUQaW-31" edge="1">
          <mxGeometry relative="1" as="geometry" />
        </mxCell>
        <mxCell id="Z_TS1K_1lkuzl-0jUQaW-19" value="&lt;b&gt;Bilgisayar&lt;br&gt;&lt;/b&gt;STM32F103C8T6 Bluepill" style="whiteSpace=wrap;html=1;aspect=fixed;direction=south;fillColor=#cce5ff;strokeColor=#36393d;" parent="WIyWlLk6GJQsqaUBKTNV-1" vertex="1">
          <mxGeometry x="270" y="610" width="100" height="100" as="geometry" />
        </mxCell>
        <mxCell id="Z_TS1K_1lkuzl-0jUQaW-23" style="edgeStyle=orthogonalEdgeStyle;rounded=0;orthogonalLoop=1;jettySize=auto;html=1;exitX=0.5;exitY=1;exitDx=0;exitDy=0;entryX=0;entryY=0.5;entryDx=0;entryDy=0;" parent="WIyWlLk6GJQsqaUBKTNV-1" source="Z_TS1K_1lkuzl-0jUQaW-20" target="Z_TS1K_1lkuzl-0jUQaW-19" edge="1">
          <mxGeometry relative="1" as="geometry" />
        </mxCell>
        <mxCell id="Z_TS1K_1lkuzl-0jUQaW-20" value="&lt;b&gt;GPS&lt;/b&gt;&lt;br&gt;Adafruit Ultimate" style="rounded=1;whiteSpace=wrap;html=1;fillColor=#ffff88;strokeColor=#36393d;" parent="WIyWlLk6GJQsqaUBKTNV-1" vertex="1">
          <mxGeometry x="260" y="525" width="120" height="60" as="geometry" />
        </mxCell>
        <mxCell id="Z_TS1K_1lkuzl-0jUQaW-21" value="&lt;b&gt;Telemetri&lt;/b&gt;&lt;br&gt;E32-TTL-1W LoRa" style="rounded=1;whiteSpace=wrap;html=1;fillColor=#cdeb8b;strokeColor=#36393d;" parent="WIyWlLk6GJQsqaUBKTNV-1" vertex="1">
          <mxGeometry x="190" y="750" width="120" height="60" as="geometry" />
        </mxCell>
        <mxCell id="Z_TS1K_1lkuzl-0jUQaW-24" value="&lt;b&gt;SD Card &lt;br&gt;modülü&lt;/b&gt;" style="rounded=1;whiteSpace=wrap;html=1;fillColor=#f5f5f5;strokeColor=#666666;fontColor=#333333;" parent="WIyWlLk6GJQsqaUBKTNV-1" vertex="1">
          <mxGeometry x="190" y="370" width="120" height="60" as="geometry" />
        </mxCell>
        <mxCell id="Z_TS1K_1lkuzl-0jUQaW-31" value="&lt;b&gt;SD Card &lt;br&gt;modülü&lt;/b&gt;" style="rounded=1;whiteSpace=wrap;html=1;fillColor=#eeeeee;strokeColor=#36393d;" parent="WIyWlLk6GJQsqaUBKTNV-1" vertex="1">
          <mxGeometry x="330" y="750" width="120" height="60" as="geometry" />
        </mxCell>
        <mxCell id="a_Jd2tKQrjYwr9dx9UAK-5" style="edgeStyle=orthogonalEdgeStyle;rounded=0;orthogonalLoop=1;jettySize=auto;html=1;exitX=0.5;exitY=1;exitDx=0;exitDy=0;entryX=0.5;entryY=0;entryDx=0;entryDy=0;fillColor=#6d8764;strokeColor=#3A5431;strokeWidth=2;" parent="WIyWlLk6GJQsqaUBKTNV-1" source="a_Jd2tKQrjYwr9dx9UAK-0" target="a_Jd2tKQrjYwr9dx9UAK-1" edge="1">
          <mxGeometry relative="1" as="geometry" />
        </mxCell>
        <mxCell id="a_Jd2tKQrjYwr9dx9UAK-0" value="Sensörleri oku" style="rounded=1;whiteSpace=wrap;html=1;fillColor=#f0a30a;strokeColor=#BD7000;fontColor=#ffffff;" parent="WIyWlLk6GJQsqaUBKTNV-1" vertex="1">
          <mxGeometry x="354" y="940" width="120" height="60" as="geometry" />
        </mxCell>
        <mxCell id="a_Jd2tKQrjYwr9dx9UAK-6" style="edgeStyle=orthogonalEdgeStyle;rounded=0;orthogonalLoop=1;jettySize=auto;html=1;exitX=0.5;exitY=1;exitDx=0;exitDy=0;entryX=0.5;entryY=0;entryDx=0;entryDy=0;fillColor=#6d8764;strokeColor=#3A5431;strokeWidth=2;" parent="WIyWlLk6GJQsqaUBKTNV-1" source="a_Jd2tKQrjYwr9dx9UAK-1" target="a_Jd2tKQrjYwr9dx9UAK-2" edge="1">
          <mxGeometry relative="1" as="geometry" />
        </mxCell>
        <mxCell id="a_Jd2tKQrjYwr9dx9UAK-1" value="Sensör dönüşümleri&lt;br&gt;ve filtre &lt;br&gt;işlemlerini yap" style="rounded=1;whiteSpace=wrap;html=1;fillColor=#f0a30a;strokeColor=#BD7000;fontColor=#ffffff;" parent="WIyWlLk6GJQsqaUBKTNV-1" vertex="1">
          <mxGeometry x="354" y="1020" width="120" height="60" as="geometry" />
        </mxCell>
        <mxCell id="a_Jd2tKQrjYwr9dx9UAK-32" style="edgeStyle=orthogonalEdgeStyle;rounded=0;orthogonalLoop=1;jettySize=auto;html=1;exitX=0.5;exitY=1;exitDx=0;exitDy=0;entryX=0.5;entryY=0;entryDx=0;entryDy=0;fillColor=#6d8764;strokeColor=#3A5431;strokeWidth=2;" parent="WIyWlLk6GJQsqaUBKTNV-1" source="a_Jd2tKQrjYwr9dx9UAK-2" target="a_Jd2tKQrjYwr9dx9UAK-30" edge="1">
          <mxGeometry relative="1" as="geometry" />
        </mxCell>
        <mxCell id="a_Jd2tKQrjYwr9dx9UAK-2" value="Sensör verilerini birleştir" style="rounded=1;whiteSpace=wrap;html=1;fillColor=#f0a30a;strokeColor=#BD7000;fontColor=#ffffff;" parent="WIyWlLk6GJQsqaUBKTNV-1" vertex="1">
          <mxGeometry x="354" y="1100" width="120" height="60" as="geometry" />
        </mxCell>
        <mxCell id="a_Jd2tKQrjYwr9dx9UAK-46" style="edgeStyle=orthogonalEdgeStyle;rounded=0;orthogonalLoop=1;jettySize=auto;html=1;exitX=0.5;exitY=1;exitDx=0;exitDy=0;entryX=0.5;entryY=0;entryDx=0;entryDy=0;fillColor=#6d8764;strokeColor=#3A5431;strokeWidth=2;" parent="WIyWlLk6GJQsqaUBKTNV-1" source="a_Jd2tKQrjYwr9dx9UAK-30" target="a_Jd2tKQrjYwr9dx9UAK-31" edge="1">
          <mxGeometry relative="1" as="geometry">
            <Array as="points">
              <mxPoint x="414" y="1250" />
              <mxPoint x="520" y="1250" />
              <mxPoint x="520" y="920" />
              <mxPoint x="600" y="920" />
            </Array>
          </mxGeometry>
        </mxCell>
        <mxCell id="a_Jd2tKQrjYwr9dx9UAK-30" value="Verileri gönder&lt;br&gt;(SDcard, telemetri)" style="rounded=1;whiteSpace=wrap;html=1;fillColor=#f0a30a;strokeColor=#BD7000;fontColor=#ffffff;" parent="WIyWlLk6GJQsqaUBKTNV-1" vertex="1">
          <mxGeometry x="354" y="1180" width="120" height="60" as="geometry" />
        </mxCell>
        <mxCell id="a_Jd2tKQrjYwr9dx9UAK-37" style="edgeStyle=orthogonalEdgeStyle;rounded=0;orthogonalLoop=1;jettySize=auto;html=1;exitX=0.5;exitY=1;exitDx=0;exitDy=0;fillColor=#e51400;strokeColor=#B20000;strokeWidth=2;" parent="WIyWlLk6GJQsqaUBKTNV-1" source="a_Jd2tKQrjYwr9dx9UAK-31" target="a_Jd2tKQrjYwr9dx9UAK-33" edge="1">
          <mxGeometry relative="1" as="geometry" />
        </mxCell>
        <mxCell id="a_Jd2tKQrjYwr9dx9UAK-40" style="edgeStyle=orthogonalEdgeStyle;rounded=0;orthogonalLoop=1;jettySize=auto;html=1;exitX=1;exitY=0.5;exitDx=0;exitDy=0;entryX=1;entryY=0.25;entryDx=0;entryDy=0;fillColor=#60a917;strokeColor=#2D7600;strokeWidth=2;" parent="WIyWlLk6GJQsqaUBKTNV-1" source="a_Jd2tKQrjYwr9dx9UAK-31" target="a_Jd2tKQrjYwr9dx9UAK-34" edge="1">
          <mxGeometry relative="1" as="geometry" />
        </mxCell>
        <mxCell id="a_Jd2tKQrjYwr9dx9UAK-31" value="1. Görev yapıldı mı?" style="rounded=1;whiteSpace=wrap;html=1;fillColor=#647687;strokeColor=#314354;fontColor=#ffffff;" parent="WIyWlLk6GJQsqaUBKTNV-1" vertex="1">
          <mxGeometry x="540" y="940" width="120" height="60" as="geometry" />
        </mxCell>
        <mxCell id="a_Jd2tKQrjYwr9dx9UAK-44" style="edgeStyle=orthogonalEdgeStyle;rounded=0;orthogonalLoop=1;jettySize=auto;html=1;exitX=0.5;exitY=1;exitDx=0;exitDy=0;strokeWidth=2;fillColor=#60a917;strokeColor=#2D7600;entryX=0.5;entryY=1;entryDx=0;entryDy=0;" parent="WIyWlLk6GJQsqaUBKTNV-1" source="a_Jd2tKQrjYwr9dx9UAK-33" target="a_Jd2tKQrjYwr9dx9UAK-51" edge="1">
          <mxGeometry relative="1" as="geometry">
            <mxPoint x="780" y="1090" as="targetPoint" />
            <Array as="points">
              <mxPoint x="600" y="1090" />
            </Array>
          </mxGeometry>
        </mxCell>
        <mxCell id="a_Jd2tKQrjYwr9dx9UAK-49" style="edgeStyle=orthogonalEdgeStyle;rounded=0;orthogonalLoop=1;jettySize=auto;html=1;exitX=0;exitY=0.5;exitDx=0;exitDy=0;entryX=0.5;entryY=0;entryDx=0;entryDy=0;fillColor=#e51400;strokeColor=#B20000;strokeWidth=2;" parent="WIyWlLk6GJQsqaUBKTNV-1" source="a_Jd2tKQrjYwr9dx9UAK-33" target="a_Jd2tKQrjYwr9dx9UAK-0" edge="1">
          <mxGeometry relative="1" as="geometry">
            <Array as="points">
              <mxPoint x="490" y="1050" />
              <mxPoint x="490" y="920" />
              <mxPoint x="414" y="920" />
            </Array>
          </mxGeometry>
        </mxCell>
        <mxCell id="a_Jd2tKQrjYwr9dx9UAK-33" value="1. Görev şartları sağlanıyor mu?" style="rounded=1;whiteSpace=wrap;html=1;" parent="WIyWlLk6GJQsqaUBKTNV-1" vertex="1">
          <mxGeometry x="540" y="1020" width="120" height="60" as="geometry" />
        </mxCell>
        <mxCell id="a_Jd2tKQrjYwr9dx9UAK-50" style="edgeStyle=orthogonalEdgeStyle;rounded=0;orthogonalLoop=1;jettySize=auto;html=1;exitX=0;exitY=0.5;exitDx=0;exitDy=0;fillColor=#e51400;strokeColor=#B20000;strokeWidth=2;" parent="WIyWlLk6GJQsqaUBKTNV-1" source="a_Jd2tKQrjYwr9dx9UAK-35" edge="1">
          <mxGeometry relative="1" as="geometry">
            <mxPoint x="420" y="920" as="targetPoint" />
            <Array as="points">
              <mxPoint x="490" y="1210" />
              <mxPoint x="490" y="920" />
            </Array>
          </mxGeometry>
        </mxCell>
        <mxCell id="a_Jd2tKQrjYwr9dx9UAK-64" style="edgeStyle=orthogonalEdgeStyle;rounded=0;orthogonalLoop=1;jettySize=auto;html=1;exitX=0.5;exitY=1;exitDx=0;exitDy=0;entryX=0.5;entryY=0;entryDx=0;entryDy=0;strokeWidth=2;fillColor=#e51400;strokeColor=#B20000;" parent="WIyWlLk6GJQsqaUBKTNV-1" source="a_Jd2tKQrjYwr9dx9UAK-34" target="a_Jd2tKQrjYwr9dx9UAK-35" edge="1">
          <mxGeometry relative="1" as="geometry" />
        </mxCell>
        <mxCell id="z8POapytjHrxTb0PpnJu-10" style="edgeStyle=orthogonalEdgeStyle;rounded=0;orthogonalLoop=1;jettySize=auto;html=1;exitX=1;exitY=0.75;exitDx=0;exitDy=0;strokeWidth=2;fontColor=#990000;entryX=0.5;entryY=0;entryDx=0;entryDy=0;fillColor=#60a917;strokeColor=#2D7600;" edge="1" parent="WIyWlLk6GJQsqaUBKTNV-1" source="a_Jd2tKQrjYwr9dx9UAK-34" target="a_Jd2tKQrjYwr9dx9UAK-0">
          <mxGeometry relative="1" as="geometry">
            <mxPoint x="810" y="1145" as="targetPoint" />
            <Array as="points">
              <mxPoint x="810" y="1145" />
              <mxPoint x="810" y="900" />
              <mxPoint x="414" y="900" />
            </Array>
          </mxGeometry>
        </mxCell>
        <mxCell id="z8POapytjHrxTb0PpnJu-12" style="edgeStyle=orthogonalEdgeStyle;rounded=0;orthogonalLoop=1;jettySize=auto;html=1;exitX=1;exitY=0.75;exitDx=0;exitDy=0;strokeWidth=2;fontColor=#990000;fillColor=#60a917;strokeColor=#2D7600;" edge="1" parent="WIyWlLk6GJQsqaUBKTNV-1" source="a_Jd2tKQrjYwr9dx9UAK-34">
          <mxGeometry relative="1" as="geometry">
            <mxPoint x="800" y="1145" as="targetPoint" />
          </mxGeometry>
        </mxCell>
        <mxCell id="a_Jd2tKQrjYwr9dx9UAK-34" value="2. Görev yapıldı mı?" style="rounded=1;whiteSpace=wrap;html=1;fillColor=#647687;strokeColor=#314354;fontColor=#ffffff;" parent="WIyWlLk6GJQsqaUBKTNV-1" vertex="1">
          <mxGeometry x="540" y="1100" width="120" height="60" as="geometry" />
        </mxCell>
        <mxCell id="a_Jd2tKQrjYwr9dx9UAK-35" value="&lt;span style=&quot;white-space: normal&quot;&gt;2. Görev şartları sağlanıyor mu?&lt;/span&gt;" style="rounded=1;whiteSpace=wrap;html=1;fillColor=#647687;strokeColor=#314354;fontColor=#ffffff;" parent="WIyWlLk6GJQsqaUBKTNV-1" vertex="1">
          <mxGeometry x="540" y="1180" width="120" height="60" as="geometry" />
        </mxCell>
        <mxCell id="a_Jd2tKQrjYwr9dx9UAK-57" style="edgeStyle=orthogonalEdgeStyle;rounded=0;orthogonalLoop=1;jettySize=auto;html=1;exitX=0.5;exitY=0;exitDx=0;exitDy=0;entryX=0.5;entryY=0;entryDx=0;entryDy=0;strokeWidth=2;fillColor=#60a917;strokeColor=#2D7600;" parent="WIyWlLk6GJQsqaUBKTNV-1" source="a_Jd2tKQrjYwr9dx9UAK-51" target="a_Jd2tKQrjYwr9dx9UAK-0" edge="1">
          <mxGeometry relative="1" as="geometry">
            <Array as="points">
              <mxPoint x="810" y="1090" />
              <mxPoint x="810" y="900" />
              <mxPoint x="414" y="900" />
            </Array>
          </mxGeometry>
        </mxCell>
        <mxCell id="z8POapytjHrxTb0PpnJu-15" style="edgeStyle=orthogonalEdgeStyle;rounded=0;orthogonalLoop=1;jettySize=auto;html=1;exitX=0.5;exitY=0;exitDx=0;exitDy=0;strokeWidth=2;fontColor=#990000;fillColor=#60a917;strokeColor=#2D7600;" edge="1" parent="WIyWlLk6GJQsqaUBKTNV-1" source="a_Jd2tKQrjYwr9dx9UAK-51">
          <mxGeometry relative="1" as="geometry">
            <mxPoint x="800" y="1090" as="targetPoint" />
          </mxGeometry>
        </mxCell>
        <mxCell id="z8POapytjHrxTb0PpnJu-16" style="edgeStyle=orthogonalEdgeStyle;rounded=0;orthogonalLoop=1;jettySize=auto;html=1;exitX=0.5;exitY=0;exitDx=0;exitDy=0;strokeWidth=2;fontColor=#990000;fillColor=#60a917;strokeColor=#2D7600;" edge="1" parent="WIyWlLk6GJQsqaUBKTNV-1" source="a_Jd2tKQrjYwr9dx9UAK-51">
          <mxGeometry relative="1" as="geometry">
            <mxPoint x="810" y="1020" as="targetPoint" />
          </mxGeometry>
        </mxCell>
        <mxCell id="a_Jd2tKQrjYwr9dx9UAK-51" value="&lt;font style=&quot;font-size: 11px&quot;&gt;&lt;b style=&quot;line-height: 100%&quot;&gt;1. ayırma&lt;/b&gt;&lt;/font&gt;" style="rounded=1;whiteSpace=wrap;html=1;arcSize=15;rotation=90;fillColor=#fa6800;strokeColor=#C73500;fontColor=#ffffff;" parent="WIyWlLk6GJQsqaUBKTNV-1" vertex="1">
          <mxGeometry x="710" y="1060" width="70" height="60" as="geometry" />
        </mxCell>
        <mxCell id="a_Jd2tKQrjYwr9dx9UAK-58" style="edgeStyle=orthogonalEdgeStyle;rounded=0;orthogonalLoop=1;jettySize=auto;html=1;exitX=0.5;exitY=0;exitDx=0;exitDy=0;entryX=0.5;entryY=0;entryDx=0;entryDy=0;strokeWidth=2;fillColor=#60a917;strokeColor=#2D7600;" parent="WIyWlLk6GJQsqaUBKTNV-1" source="a_Jd2tKQrjYwr9dx9UAK-52" target="a_Jd2tKQrjYwr9dx9UAK-0" edge="1">
          <mxGeometry relative="1" as="geometry">
            <Array as="points">
              <mxPoint x="810" y="1250" />
              <mxPoint x="810" y="900" />
              <mxPoint x="414" y="900" />
            </Array>
          </mxGeometry>
        </mxCell>
        <mxCell id="z8POapytjHrxTb0PpnJu-13" style="edgeStyle=orthogonalEdgeStyle;rounded=0;orthogonalLoop=1;jettySize=auto;html=1;exitX=0.5;exitY=0;exitDx=0;exitDy=0;strokeWidth=2;fontColor=#990000;fillColor=#60a917;strokeColor=#2D7600;" edge="1" parent="WIyWlLk6GJQsqaUBKTNV-1" source="a_Jd2tKQrjYwr9dx9UAK-52">
          <mxGeometry relative="1" as="geometry">
            <mxPoint x="810" y="1180" as="targetPoint" />
          </mxGeometry>
        </mxCell>
        <mxCell id="a_Jd2tKQrjYwr9dx9UAK-52" value="&lt;b&gt;&lt;font style=&quot;font-size: 11px ; line-height: 100%&quot;&gt;2. ayırma&lt;/font&gt;&lt;/b&gt;" style="rounded=1;whiteSpace=wrap;html=1;arcSize=15;rotation=90;fillColor=#e51400;strokeColor=#B20000;fontColor=#ffffff;" parent="WIyWlLk6GJQsqaUBKTNV-1" vertex="1">
          <mxGeometry x="710" y="1220" width="70" height="60" as="geometry" />
        </mxCell>
        <mxCell id="a_Jd2tKQrjYwr9dx9UAK-59" style="edgeStyle=orthogonalEdgeStyle;rounded=0;orthogonalLoop=1;jettySize=auto;html=1;fillColor=#60a917;strokeColor=#2D7600;strokeWidth=2;entryX=0.5;entryY=1;entryDx=0;entryDy=0;" parent="WIyWlLk6GJQsqaUBKTNV-1" edge="1" target="a_Jd2tKQrjYwr9dx9UAK-52">
          <mxGeometry relative="1" as="geometry">
            <mxPoint x="690" y="1290" as="targetPoint" />
            <mxPoint x="600" y="1240" as="sourcePoint" />
            <Array as="points">
              <mxPoint x="600" y="1250" />
            </Array>
          </mxGeometry>
        </mxCell>
        <mxCell id="z8POapytjHrxTb0PpnJu-1" value="&lt;b&gt;6DOF IMU&lt;br&gt;&lt;/b&gt;BMI 088" style="rounded=1;whiteSpace=wrap;html=1;fillColor=#fad9d5;strokeColor=#ae4132;" vertex="1" parent="WIyWlLk6GJQsqaUBKTNV-1">
          <mxGeometry x="480" y="330" width="120" height="60" as="geometry" />
        </mxCell>
        <mxCell id="z8POapytjHrxTb0PpnJu-3" style="edgeStyle=orthogonalEdgeStyle;rounded=0;orthogonalLoop=1;jettySize=auto;html=1;exitX=0.5;exitY=0;exitDx=0;exitDy=0;entryX=0;entryY=0.5;entryDx=0;entryDy=0;fillColor=#60a917;strokeColor=#2D7600;strokeWidth=2;" edge="1" parent="WIyWlLk6GJQsqaUBKTNV-1" source="z8POapytjHrxTb0PpnJu-2" target="a_Jd2tKQrjYwr9dx9UAK-0">
          <mxGeometry relative="1" as="geometry" />
        </mxCell>
        <mxCell id="z8POapytjHrxTb0PpnJu-2" value="&lt;b style=&quot;line-height: 110%&quot;&gt;Başlat&lt;/b&gt;" style="ellipse;whiteSpace=wrap;html=1;rotation=90;fillColor=#d80073;strokeColor=#A50040;fontColor=#ffffff;" vertex="1" parent="WIyWlLk6GJQsqaUBKTNV-1">
          <mxGeometry x="260" y="940" width="90" height="60" as="geometry" />
        </mxCell>
        <mxCell id="z8POapytjHrxTb0PpnJu-4" value="1. Görev şartları sağlanıyor mu?" style="rounded=1;whiteSpace=wrap;html=1;fillColor=#647687;strokeColor=#314354;fontColor=#ffffff;" vertex="1" parent="WIyWlLk6GJQsqaUBKTNV-1">
          <mxGeometry x="540" y="1020" width="120" height="60" as="geometry" />
        </mxCell>
        <mxCell id="z8POapytjHrxTb0PpnJu-6" value="" style="endArrow=classic;html=1;strokeWidth=2;fillColor=#a20025;strokeColor=#6F0000;" edge="1" parent="WIyWlLk6GJQsqaUBKTNV-1">
          <mxGeometry width="50" height="50" relative="1" as="geometry">
            <mxPoint x="450" y="1300" as="sourcePoint" />
            <mxPoint x="520" y="1300" as="targetPoint" />
          </mxGeometry>
        </mxCell>
        <mxCell id="z8POapytjHrxTb0PpnJu-8" value="&lt;b&gt;HAYIR&lt;/b&gt;" style="text;html=1;align=center;verticalAlign=middle;resizable=0;points=[];labelBackgroundColor=#ffffff;fontColor=#990000;" vertex="1" connectable="0" parent="z8POapytjHrxTb0PpnJu-6">
          <mxGeometry x="-0.4514" relative="1" as="geometry">
            <mxPoint x="11" y="-10" as="offset" />
          </mxGeometry>
        </mxCell>
        <mxCell id="z8POapytjHrxTb0PpnJu-7" value="" style="endArrow=classic;html=1;strokeWidth=2;fillColor=#60a917;strokeColor=#2D7600;" edge="1" parent="WIyWlLk6GJQsqaUBKTNV-1">
          <mxGeometry width="50" height="50" relative="1" as="geometry">
            <mxPoint x="540" y="1300" as="sourcePoint" />
            <mxPoint x="610" y="1300" as="targetPoint" />
          </mxGeometry>
        </mxCell>
        <mxCell id="z8POapytjHrxTb0PpnJu-9" value="&lt;b&gt;EVET&lt;/b&gt;" style="text;html=1;align=center;verticalAlign=middle;resizable=0;points=[];labelBackgroundColor=#ffffff;fontColor=#006600;" vertex="1" connectable="0" parent="z8POapytjHrxTb0PpnJu-7">
          <mxGeometry x="-0.68" y="4" relative="1" as="geometry">
            <mxPoint x="19" y="-6" as="offset" />
          </mxGeometry>
        </mxCell>
        <mxCell id="z8POapytjHrxTb0PpnJu-11" style="edgeStyle=orthogonalEdgeStyle;rounded=0;orthogonalLoop=1;jettySize=auto;html=1;exitX=0.5;exitY=1;exitDx=0;exitDy=0;entryX=0.5;entryY=0;entryDx=0;entryDy=0;fillColor=#60a917;strokeColor=#2D7600;strokeWidth=2;" edge="1" parent="WIyWlLk6GJQsqaUBKTNV-1">
          <mxGeometry relative="1" as="geometry">
            <Array as="points">
              <mxPoint x="414" y="1250" />
              <mxPoint x="520" y="1250" />
              <mxPoint x="520" y="920" />
              <mxPoint x="600" y="920" />
            </Array>
            <mxPoint x="414" y="1240" as="sourcePoint" />
            <mxPoint x="600" y="940" as="targetPoint" />
          </mxGeometry>
        </mxCell>
      </root>
    </mxGraphModel>
  </diagram>
</mxfile>
